<?xml version="1.0" encoding="utf-8"?>
<!-- Generator: Adobe Illustrator 17.0.0, SVG Export Plug-In . SVG Version: 6.00 Build 0)  -->
<!DOCTYPE svg PUBLIC "-//W3C//DTD SVG 1.1//EN" "http://www.w3.org/Graphics/SVG/1.1/DTD/svg11.dtd">
<svg version="1.1" id="Layer_1" xmlns="http://www.w3.org/2000/svg" xmlns:xlink="http://www.w3.org/1999/xlink" x="0px" y="0px"
	 width="24px" height="24px" viewBox="0 0 24 24" enable-background="new 0 0 24 24" xml:space="preserve">
<g>
	<g>
		<path fill="#FFFFFF" d="M17.819,19.287c3.973-0.16,5.738-1.968,5.738-4.181c0-1.922-1.334-3.539-4.288-4.036
			c0.013-0.715,0.014-1.404,0.014-2.048H0.442c0,4.209,0.005,10.324,3.787,13.244c-2.295,0.176-3.787,0.455-3.787,0.77
			C0.442,23.569,4.66,24,9.863,24s9.42-0.431,9.42-0.964c0-0.315-1.492-0.595-3.786-0.77C16.523,21.474,17.274,20.448,17.819,19.287
			z M19.199,12.901c1.658,0.384,1.954,1.197,1.935,2.249c-0.021,1.195-0.367,2.004-2.631,2.282
			C18.912,15.978,19.106,14.416,19.199,12.901z M2.717,10.483h2.945c-1.32,3.896,0.907,10.06,0.907,10.06
			C1.753,16.852,2.717,10.483,2.717,10.483z"/>
		<path fill="#FFFFFF" d="M11.404,6.483c0.374-3.393,7.866-1.696,6.305-6.101c-0.239-0.673-1.317-0.383-1.076,0.297
			c0.685,1.931-1.917,2.167-3.241,2.609c-1.591,0.532-2.908,1.421-3.103,3.195C10.209,7.198,11.326,7.19,11.404,6.483z"/>
		<path fill="#FFFFFF" d="M16.722,4.108c-1.461,0.344-2.796,0.97-3.252,2.506c-0.205,0.692,0.872,0.985,1.076,0.297
			c0.503-1.696,2.73-1.724,4.153-2.137c1.528-0.444,2.402-1.502,2.192-3.126c-0.092-0.704-1.208-0.712-1.116,0
			C20.029,3.612,18.221,3.754,16.722,4.108z"/>
	</g>
</g>
</svg>
