<?xml version="1.0" encoding="utf-8"?>
<!-- Generator: Adobe Illustrator 17.0.0, SVG Export Plug-In . SVG Version: 6.00 Build 0)  -->
<!DOCTYPE svg PUBLIC "-//W3C//DTD SVG 1.1//EN" "http://www.w3.org/Graphics/SVG/1.1/DTD/svg11.dtd">
<svg version="1.1" id="Layer_1" xmlns="http://www.w3.org/2000/svg" xmlns:xlink="http://www.w3.org/1999/xlink" x="0px" y="0px"
	 width="42px" height="64px" viewBox="0 0 42 64" enable-background="new 0 0 42 64" xml:space="preserve">
<path d="M42,21.568C42,33.48,21,64,21,64S0,33.48,0,21.568S9.402,0,21,0S42,9.656,42,21.568z"/>
<g>
	<circle fill="#FFFFFF" cx="21" cy="21" r="19"/>
	<g>
		<path d="M22.566,11.585c-0.149-0.52-0.89-0.532-1.045-0.015c-1.005,3.362-2.424,5.183-10.051,7.374
			c-1.811,0.52-2.857,2.415-2.336,4.226c0.505,1.759,2.307,2.797,4.07,2.377l3.434,5.263l2.624-0.754l-3.396-5.204
			c5.642-1.32,7.602-0.464,9.923,1.574c0.406,0.357,1.027-0.046,0.878-0.566L22.566,11.585z"/>
		<path d="M32.567,17.188c-1.067-3.716-3.399-5.297-4.717-5.795c0,0-0.344-0.136-0.652-0.048c-0.477,0.137-0.784,0.648-0.638,1.158
			c0.13,0.454,0.617,0.626,0.617,0.626c1.53,0.57,2.909,2.188,3.594,4.574c0.685,2.385,0.376,4.489-0.619,5.783
			c0,0-0.322,0.407-0.192,0.861c0.147,0.51,0.679,0.78,1.156,0.643c0.307-0.088,0.528-0.387,0.528-0.387
			C32.497,23.481,33.634,20.904,32.567,17.188z"/>
		<path d="M27.151,14.873c0,0-0.387-0.3-0.846-0.168c-0.475,0.136-0.779,0.654-0.635,1.153c0.085,0.296,0.33,0.484,0.33,0.484
			c0.469,0.388,1.164,0.989,1.538,2.29c0.374,1.301,0.104,2.18-0.088,2.757c0,0-0.107,0.29-0.023,0.584
			c0.143,0.499,0.676,0.778,1.151,0.642c0.459-0.132,0.627-0.593,0.627-0.593c0.42-1.149,0.519-2.537,0.126-3.906
			C28.938,16.749,28.118,15.625,27.151,14.873z"/>
	</g>
</g>
</svg>
