<?xml version="1.0" encoding="utf-8"?>
<!-- Generator: Adobe Illustrator 17.0.0, SVG Export Plug-In . SVG Version: 6.00 Build 0)  -->
<!DOCTYPE svg PUBLIC "-//W3C//DTD SVG 1.1//EN" "http://www.w3.org/Graphics/SVG/1.1/DTD/svg11.dtd">
<svg version="1.1" id="Layer_1" xmlns="http://www.w3.org/2000/svg" xmlns:xlink="http://www.w3.org/1999/xlink" x="0px" y="0px"
	 width="42px" height="64px" viewBox="0 0 42 64" enable-background="new 0 0 42 64" xml:space="preserve">
<path d="M42,21.568C42,33.48,21,64,21,64S0,33.48,0,21.568S9.402,0,21,0S42,9.656,42,21.568z"/>
<g>
	<g>
		<circle fill="#FFFFFF" cx="21" cy="21" r="19"/>
	</g>
	<g>
		<g>
			<path fill="#010101" d="M26.819,28.287c3.973-0.16,5.738-1.968,5.738-4.181c0-1.922-1.334-3.539-4.288-4.036
				c0.013-0.715,0.014-1.404,0.014-2.048H9.442c0,4.209,0.005,10.324,3.787,13.244c-2.295,0.176-3.787,0.455-3.787,0.77
				c0,0.533,4.218,0.964,9.42,0.964s9.42-0.431,9.42-0.964c0-0.315-1.492-0.595-3.786-0.77
				C25.523,30.474,26.274,29.448,26.819,28.287z M28.199,21.901c1.658,0.384,1.954,1.197,1.935,2.249
				c-0.021,1.195-0.367,2.004-2.631,2.282C27.912,24.978,28.106,23.416,28.199,21.901z M11.717,19.483h2.945
				c-1.32,3.896,0.907,10.06,0.907,10.06C10.753,25.852,11.717,19.483,11.717,19.483z"/>
			<path fill="#010101" d="M20.404,15.483c0.374-3.393,7.866-1.696,6.305-6.101c-0.239-0.673-1.317-0.383-1.076,0.297
				c0.685,1.931-1.917,2.167-3.241,2.609c-1.591,0.532-2.908,1.421-3.103,3.195C19.209,16.198,20.326,16.19,20.404,15.483z"/>
			<path fill="#010101" d="M25.722,13.108c-1.461,0.344-2.796,0.97-3.252,2.506c-0.205,0.692,0.872,0.985,1.076,0.297
				c0.503-1.696,2.73-1.724,4.153-2.137c1.528-0.444,2.402-1.502,2.192-3.126c-0.092-0.704-1.208-0.712-1.116,0
				C29.029,12.612,27.221,12.754,25.722,13.108z"/>
		</g>
	</g>
</g>
</svg>
