<?xml version="1.0" encoding="utf-8"?>
<!-- Generator: Adobe Illustrator 17.0.0, SVG Export Plug-In . SVG Version: 6.00 Build 0)  -->
<!DOCTYPE svg PUBLIC "-//W3C//DTD SVG 1.1//EN" "http://www.w3.org/Graphics/SVG/1.1/DTD/svg11.dtd">
<svg version="1.1" id="Layer_1" xmlns="http://www.w3.org/2000/svg" xmlns:xlink="http://www.w3.org/1999/xlink" x="0px" y="0px"
	 width="42px" height="64px" viewBox="0 0 42 64" enable-background="new 0 0 42 64" xml:space="preserve">
<path d="M42,21.568C42,33.48,21,64,21,64S0,33.48,0,21.568S9.402,0,21,0S42,9.656,42,21.568z"/>
<g>
	<circle fill="#FFFFFF" cx="21" cy="21" r="19"/>
	<g>
		<g>
			<defs>
				<rect id="SVGID_1_" x="9" y="9.306" width="24" height="23.387"/>
			</defs>
			<clipPath id="SVGID_2_">
				<use xlink:href="#SVGID_1_"  overflow="visible"/>
			</clipPath>
			<path clip-path="url(#SVGID_2_)" d="M32.668,19.323l-4.883,4.757l1.153,6.723c0.081,0.481-0.12,0.973-0.517,1.263
				c-0.223,0.16-0.491,0.246-0.756,0.246c-0.205,0-0.413-0.051-0.602-0.148l-6.035-3.175l-6.035,3.175
				c-0.435,0.227-0.961,0.19-1.358-0.098c-0.397-0.289-0.598-0.778-0.514-1.263l1.153-6.719l-4.883-4.76
				c-0.352-0.343-0.478-0.856-0.327-1.323c0.152-0.466,0.555-0.806,1.043-0.879l6.748-0.98l3.018-6.115
				c0.218-0.444,0.665-0.721,1.156-0.721c0.491,0,0.939,0.277,1.156,0.718l3.021,6.115l6.748,0.983
				c0.485,0.069,0.888,0.41,1.04,0.879C33.146,18.467,33.017,18.98,32.668,19.323L32.668,19.323z M32.668,19.323"/>
		</g>
	</g>
</g>
</svg>
